<svg id="svg" version="1.1" xmlns="http://www.w3.org/2000/svg" xmlns:xlink="http://www.w3.org/1999/xlink" width="400" height="400" viewBox="0, 0, 400,400"><g id="svgg"><path id="path0" d="M290.800 12.386 C 282.859 14.476,276.848 20.546,274.745 28.600 C 274.056 31.238,274.013 34.247,274.007 80.713 C 274.001 122.751,273.917 130.057,273.437 130.241 C 273.124 130.361,271.296 129.320,269.337 127.907 C 256.728 118.815,242.380 112.488,227.800 109.592 C 209.430 105.943,194.170 105.943,175.800 109.592 C 174.165 109.917,165.966 112.060,163.800 112.729 C 161.752 113.361,155.923 115.643,153.272 116.849 C 151.882 117.482,150.687 118.000,150.618 118.000 C 149.394 118.000,131.974 129.025,130.400 130.796 C 130.290 130.919,129.390 131.642,128.400 132.402 C 123.552 136.123,113.323 146.352,109.602 151.200 C 108.842 152.190,108.119 153.090,107.996 153.200 C 106.852 154.216,101.305 162.499,98.486 167.400 C 79.140 201.027,79.598 250.363,99.562 283.400 C 102.037 287.496,105.999 293.250,108.375 296.200 C 109.261 297.300,110.394 298.782,110.893 299.493 C 111.787 300.768,124.856 313.840,126.800 315.405 C 128.608 316.860,132.946 320.188,133.833 320.800 C 137.803 323.541,143.015 326.908,145.000 328.013 C 147.482 329.394,152.698 332.000,152.983 332.000 C 153.072 332.000,154.282 332.523,155.672 333.161 C 158.121 334.286,164.296 336.426,168.800 337.710 C 170.747 338.265,172.740 338.731,178.600 340.002 C 192.794 343.081,210.666 343.072,225.200 339.979 C 233.113 338.296,242.735 335.523,246.631 333.804 C 247.384 333.472,248.675 332.912,249.500 332.559 C 275.822 321.317,301.099 295.118,311.436 268.363 C 314.357 260.803,316.828 251.411,318.160 242.800 C 319.629 233.302,319.653 231.380,319.525 130.200 L 319.400 31.000 318.496 27.800 C 315.218 16.202,302.723 9.247,290.800 12.386 M211.200 114.200 C 239.181 116.896,261.610 127.952,282.137 149.168 C 287.438 154.647,288.678 156.743,289.055 160.861 C 290.046 171.694,280.903 180.358,270.503 178.441 C 266.563 177.715,264.440 176.354,259.872 171.623 C 245.685 156.929,232.803 149.787,214.600 146.524 C 208.912 145.504,193.177 145.506,187.200 146.526 C 162.955 150.667,142.732 165.989,144.076 179.200 L 144.219 180.600 146.409 178.233 C 157.274 166.491,166.855 159.978,179.400 155.804 C 192.298 151.514,210.996 151.463,223.800 155.683 C 256.320 166.402,277.353 198.449,273.535 231.460 L 273.065 235.521 276.235 238.660 C 292.715 254.986,294.851 281.157,281.206 299.560 C 273.932 309.370,259.326 320.950,248.400 325.569 C 247.190 326.081,245.480 326.832,244.600 327.239 C 237.573 330.488,225.916 333.299,213.236 334.801 C 208.831 335.324,193.689 335.314,189.716 334.786 C 161.279 331.009,142.958 322.168,122.649 302.419 C 114.495 294.490,112.852 291.407,113.300 284.871 C 113.885 276.334,120.148 270.649,129.000 270.619 C 135.254 270.597,135.759 270.880,144.157 279.116 C 164.369 298.938,188.017 306.880,214.200 302.642 C 237.899 298.805,257.953 284.557,257.995 271.525 L 258.000 270.049 254.300 273.867 C 243.027 285.501,230.994 292.286,216.000 295.462 C 211.009 296.519,192.989 296.523,187.800 295.468 C 163.475 290.524,142.781 272.853,134.047 249.569 C 130.741 240.754,129.914 235.344,130.037 223.316 L 130.132 214.022 128.165 212.456 C 109.123 197.294,106.826 166.091,123.317 146.600 C 143.184 123.119,176.457 110.852,211.200 114.200 " stroke="none" fill="#f9f9f8" fill-rule="evenodd"></path><path id="path1" d="M189.800 114.226 C 161.918 116.808,139.139 127.900,123.317 146.600 C 106.647 166.303,109.133 197.459,128.598 212.777 C 136.512 219.005,143.340 221.797,182.082 234.642 C 250.464 257.316,250.048 257.173,252.374 258.738 C 260.465 264.179,260.088 276.271,251.563 284.754 C 229.721 306.486,189.135 309.925,160.600 292.462 C 154.562 288.767,151.291 286.112,144.157 279.116 C 135.759 270.880,135.254 270.597,129.000 270.619 C 120.148 270.649,113.885 276.334,113.300 284.871 C 112.852 291.407,114.495 294.490,122.649 302.419 C 142.958 322.168,161.279 331.009,189.716 334.786 C 193.689 335.314,208.831 335.324,213.236 334.801 C 225.916 333.299,237.573 330.488,244.600 327.239 C 245.480 326.832,247.190 326.081,248.400 325.569 C 259.326 320.950,273.932 309.370,281.206 299.560 C 294.732 281.317,292.724 255.137,276.559 238.972 C 269.047 231.460,261.710 228.135,228.000 216.969 C 162.243 195.187,152.829 192.036,151.566 191.390 C 141.642 186.310,141.494 173.094,151.257 163.705 C 164.004 151.446,179.667 145.811,201.000 145.808 C 225.327 145.805,242.006 153.119,259.872 171.623 C 264.440 176.354,266.563 177.715,270.503 178.441 C 280.903 180.358,290.046 171.694,289.055 160.861 C 288.678 156.743,287.438 154.647,282.137 149.168 C 256.580 122.754,225.345 110.934,189.800 114.226 " stroke="none" fill="#f3bc07" fill-rule="evenodd"></path><path id="path2" d="M288.492 0.355 C 287.553 0.521,286.572 0.868,286.312 1.128 C 286.052 1.388,285.060 1.600,284.107 1.600 C 282.936 1.600,282.300 1.794,282.145 2.200 C 282.018 2.530,281.672 2.800,281.376 2.800 C 280.411 2.800,278.800 3.715,278.800 4.264 C 278.800 4.559,278.466 4.800,278.058 4.800 C 277.651 4.800,276.831 5.250,276.238 5.800 C 275.644 6.350,274.808 6.800,274.379 6.800 C 273.951 6.800,273.600 7.070,273.600 7.400 C 273.600 7.730,273.360 8.000,273.068 8.000 C 272.775 8.000,272.294 8.450,272.000 9.000 C 271.706 9.550,271.225 10.000,270.932 10.000 C 270.640 10.000,270.400 10.251,270.400 10.557 C 270.400 10.864,270.130 11.218,269.800 11.345 C 269.470 11.471,269.200 11.898,269.200 12.293 C 269.200 12.687,268.750 13.348,268.200 13.761 C 267.650 14.174,267.200 14.765,267.200 15.075 C 267.200 15.385,266.750 16.055,266.200 16.565 C 265.650 17.075,265.200 17.857,265.200 18.303 C 265.200 18.749,264.930 19.218,264.600 19.345 C 264.211 19.494,264.000 20.114,264.000 21.107 C 264.000 21.950,263.775 22.882,263.500 23.179 C 263.094 23.616,263.112 23.658,263.600 23.400 C 264.088 23.142,264.106 23.184,263.700 23.621 C 263.425 23.918,263.200 24.934,263.200 25.880 C 263.200 27.142,263.040 27.600,262.600 27.600 C 262.139 27.600,262.000 28.111,262.000 29.800 C 262.000 31.010,261.820 32.000,261.600 32.000 C 261.345 32.000,261.200 35.200,261.200 40.800 C 261.200 49.333,261.176 49.600,260.400 49.600 C 259.960 49.600,259.600 49.428,259.600 49.218 C 259.600 49.008,258.968 48.718,258.196 48.573 C 257.423 48.428,256.693 48.150,256.572 47.955 C 256.451 47.760,255.753 47.600,255.019 47.600 C 254.203 47.600,253.596 47.367,253.455 47.000 C 253.324 46.656,252.726 46.400,252.058 46.400 C 251.417 46.400,250.376 46.131,249.746 45.802 C 249.116 45.474,247.850 45.204,246.933 45.202 C 246.017 45.201,245.207 45.030,245.133 44.821 C 245.060 44.613,244.156 44.400,243.124 44.348 C 242.062 44.294,241.282 44.068,241.324 43.827 C 241.367 43.587,240.566 43.347,239.500 43.278 C 238.455 43.211,237.600 42.986,237.600 42.778 C 237.600 42.570,236.835 42.394,235.900 42.386 C 234.965 42.378,233.120 42.111,231.800 41.792 C 230.480 41.473,228.089 41.210,226.487 41.206 C 224.272 41.201,223.520 41.056,223.345 40.600 C 223.161 40.123,222.306 40.000,219.157 40.000 C 216.853 40.000,215.200 39.837,215.200 39.610 C 215.200 39.363,209.610 39.220,200.000 39.220 C 190.390 39.220,184.800 39.363,184.800 39.610 C 184.800 39.837,183.147 40.000,180.843 40.000 C 177.694 40.000,176.839 40.123,176.655 40.600 C 176.480 41.056,175.728 41.201,173.513 41.206 C 171.911 41.210,169.520 41.473,168.200 41.792 C 166.880 42.111,165.035 42.378,164.100 42.386 C 163.165 42.394,162.400 42.570,162.400 42.778 C 162.400 42.986,161.545 43.211,160.500 43.278 C 159.434 43.347,158.633 43.587,158.676 43.827 C 158.718 44.068,157.938 44.294,156.876 44.348 C 155.844 44.400,154.940 44.613,154.867 44.821 C 154.793 45.030,153.983 45.201,153.067 45.202 C 152.150 45.204,150.884 45.474,150.254 45.802 C 149.624 46.131,148.583 46.400,147.942 46.400 C 147.274 46.400,146.676 46.656,146.545 47.000 C 146.404 47.367,145.797 47.600,144.981 47.600 C 144.247 47.600,143.549 47.760,143.428 47.955 C 143.307 48.150,142.577 48.428,141.804 48.573 C 141.032 48.718,140.400 49.008,140.400 49.218 C 140.400 49.428,139.680 49.600,138.800 49.600 C 137.920 49.600,137.200 49.780,137.200 50.000 C 137.200 50.220,136.855 50.400,136.433 50.400 C 135.398 50.400,134.365 50.821,134.573 51.157 C 134.666 51.307,134.267 51.470,133.686 51.518 C 133.104 51.566,132.478 51.874,132.295 52.203 C 132.111 52.531,131.555 52.800,131.060 52.800 C 130.565 52.800,129.918 53.025,129.621 53.300 C 129.184 53.706,129.142 53.688,129.400 53.200 C 129.658 52.712,129.616 52.694,129.179 53.100 C 128.882 53.375,128.310 53.600,127.907 53.600 C 127.505 53.600,127.071 53.870,126.945 54.200 C 126.818 54.530,126.388 54.800,125.990 54.800 C 125.201 54.800,122.682 56.015,122.467 56.500 C 122.393 56.665,121.920 56.800,121.416 56.800 C 120.911 56.800,120.274 57.070,120.000 57.400 C 119.726 57.730,119.254 58.000,118.951 58.000 C 118.648 58.000,118.400 58.180,118.400 58.400 C 118.400 58.620,117.969 58.800,117.443 58.800 C 116.916 58.800,116.382 59.070,116.255 59.400 C 116.129 59.730,115.591 60.000,115.062 60.000 C 114.532 60.000,113.874 60.270,113.600 60.600 C 113.326 60.930,112.843 61.200,112.527 61.200 C 112.211 61.200,112.064 61.380,112.200 61.600 C 112.336 61.820,112.089 62.000,111.652 62.000 C 111.215 62.000,110.587 62.270,110.257 62.600 C 109.927 62.930,109.464 63.200,109.229 63.200 C 108.993 63.200,108.800 63.380,108.800 63.600 C 108.800 63.820,108.459 64.000,108.043 64.000 C 107.626 64.000,107.182 64.270,107.055 64.600 C 106.929 64.930,106.369 65.200,105.813 65.200 C 105.162 65.200,104.800 65.423,104.800 65.824 C 104.800 66.167,104.619 66.335,104.397 66.198 C 104.176 66.061,103.886 66.231,103.754 66.575 C 103.622 66.919,103.183 67.200,102.777 67.200 C 102.372 67.200,101.896 67.425,101.720 67.701 C 101.544 67.976,100.860 68.464,100.200 68.784 C 99.540 69.105,98.640 69.735,98.200 70.184 C 97.760 70.633,96.725 71.343,95.900 71.763 C 95.075 72.183,94.400 72.725,94.400 72.969 C 94.400 73.212,93.680 73.723,92.800 74.104 C 91.920 74.486,91.200 74.978,91.200 75.199 C 91.200 75.419,91.012 75.600,90.783 75.600 C 90.553 75.600,89.880 76.050,89.287 76.600 C 88.693 77.150,87.981 77.600,87.704 77.600 C 87.427 77.600,87.200 77.870,87.200 78.200 C 87.200 78.530,86.996 78.800,86.747 78.800 C 86.498 78.800,85.733 79.395,85.047 80.122 C 84.361 80.850,83.671 81.435,83.513 81.422 C 83.355 81.410,82.858 81.715,82.408 82.100 C 81.959 82.485,81.413 82.800,81.195 82.800 C 80.978 82.800,80.800 83.070,80.800 83.400 C 80.800 83.730,80.607 84.000,80.371 84.000 C 79.818 84.000,78.800 85.018,78.800 85.571 C 78.800 85.807,78.626 86.000,78.414 86.000 C 77.891 86.000,75.600 88.269,75.600 88.787 C 75.600 89.014,75.408 89.200,75.174 89.200 C 74.940 89.200,73.770 90.178,72.574 91.374 C 71.378 92.570,70.400 93.740,70.400 93.974 C 70.400 94.208,70.207 94.400,69.971 94.400 C 69.418 94.400,68.400 95.418,68.400 95.971 C 68.400 96.207,68.130 96.400,67.800 96.400 C 67.470 96.400,67.200 96.670,67.200 97.000 C 67.200 97.330,66.960 97.600,66.668 97.600 C 66.375 97.600,65.894 98.050,65.600 98.600 C 65.306 99.150,64.825 99.600,64.532 99.600 C 64.240 99.600,64.000 99.743,64.000 99.918 C 64.000 100.092,63.280 101.008,62.400 101.951 C 61.520 102.895,60.800 103.844,60.800 104.060 C 60.800 104.277,60.170 105.048,59.400 105.774 C 58.630 106.500,58.000 107.279,58.000 107.504 C 58.000 107.730,57.730 108.018,57.400 108.145 C 57.070 108.271,56.800 108.741,56.800 109.187 C 56.800 109.643,56.536 110.000,56.200 110.000 C 55.870 110.000,55.600 110.155,55.600 110.345 C 55.600 110.535,55.180 111.120,54.666 111.645 C 54.152 112.170,53.478 113.185,53.168 113.900 C 52.858 114.615,52.379 115.200,52.102 115.200 C 51.655 115.200,51.403 116.009,51.563 116.930 C 51.594 117.111,51.423 117.138,51.183 116.989 C 50.936 116.837,50.651 117.084,50.526 117.560 C 50.406 118.022,50.148 118.400,49.953 118.400 C 49.759 118.400,49.600 118.655,49.600 118.967 C 49.600 119.278,49.465 119.593,49.300 119.667 C 49.135 119.740,48.489 120.586,47.864 121.546 C 47.239 122.506,46.969 123.151,47.264 122.980 C 47.559 122.809,47.215 123.239,46.500 123.938 C 45.785 124.636,45.200 125.413,45.200 125.666 C 45.200 125.918,44.780 126.681,44.266 127.362 C 43.752 128.043,42.997 129.365,42.589 130.300 C 42.180 131.235,41.701 132.000,41.523 132.000 C 41.345 132.000,41.200 132.450,41.200 133.000 C 41.200 133.550,40.974 134.000,40.698 134.000 C 40.148 134.000,39.189 135.883,39.094 137.149 C 39.061 137.586,38.857 137.912,38.641 137.872 C 38.424 137.833,38.172 138.150,38.079 138.578 C 37.987 139.006,37.481 140.038,36.956 140.870 C 36.430 141.703,36.000 142.643,36.000 142.959 C 36.000 143.275,35.816 143.595,35.591 143.670 C 35.366 143.745,35.086 144.345,34.968 145.003 C 34.850 145.661,34.584 146.260,34.376 146.333 C 34.169 146.407,34.000 146.882,34.000 147.391 C 34.000 147.899,33.730 148.418,33.400 148.545 C 33.070 148.671,32.800 149.231,32.800 149.787 C 32.800 150.344,32.620 150.800,32.400 150.800 C 32.180 150.800,31.999 151.115,31.998 151.500 C 31.996 151.885,31.726 152.716,31.398 153.346 C 31.069 153.976,30.800 155.011,30.800 155.646 C 30.800 156.405,30.595 156.800,30.200 156.800 C 29.831 156.800,29.600 157.175,29.600 157.776 C 29.600 158.313,29.420 158.864,29.200 159.000 C 28.980 159.136,28.800 159.847,28.800 160.581 C 28.800 161.397,28.567 162.004,28.200 162.145 C 27.792 162.301,27.600 162.940,27.600 164.138 C 27.600 165.218,27.367 166.095,27.000 166.400 C 26.670 166.674,26.400 167.416,26.400 168.049 C 26.400 168.682,26.220 169.200,26.000 169.200 C 25.780 169.200,25.600 169.901,25.600 170.757 C 25.600 171.772,25.391 172.395,25.000 172.545 C 24.606 172.696,24.400 173.320,24.400 174.364 C 24.400 175.238,24.220 176.064,24.000 176.200 C 23.780 176.336,23.600 177.697,23.600 179.224 C 23.600 181.425,23.476 182.000,23.000 182.000 C 22.548 182.000,22.400 182.485,22.400 183.967 C 22.400 185.048,22.201 186.000,21.959 186.080 C 21.716 186.161,21.433 187.301,21.329 188.614 C 21.226 189.926,20.974 191.171,20.771 191.380 C 20.567 191.589,20.400 193.423,20.400 195.456 C 20.400 197.489,20.220 199.264,20.000 199.400 C 19.383 199.781,19.482 202.516,20.100 202.155 C 20.375 201.994,20.285 202.223,19.900 202.663 C 19.138 203.533,18.786 236.897,19.533 237.359 C 19.717 237.472,19.789 238.091,19.695 238.735 C 19.600 239.379,19.720 240.027,19.962 240.176 C 20.232 240.343,20.400 241.972,20.400 244.424 C 20.400 246.611,20.548 248.400,20.729 248.400 C 20.909 248.400,21.099 249.345,21.151 250.500 C 21.202 251.655,21.505 252.999,21.822 253.486 C 22.150 253.988,22.400 255.332,22.400 256.586 C 22.400 258.287,22.539 258.800,23.000 258.800 C 23.471 258.800,23.600 259.353,23.600 261.376 C 23.600 262.793,23.780 264.064,24.000 264.200 C 24.220 264.336,24.400 265.162,24.400 266.036 C 24.400 267.080,24.606 267.704,25.000 267.855 C 25.391 268.005,25.600 268.628,25.600 269.643 C 25.600 270.499,25.780 271.200,26.000 271.200 C 26.220 271.200,26.400 271.808,26.400 272.551 C 26.400 273.294,26.670 274.126,27.000 274.400 C 27.366 274.704,27.600 275.580,27.600 276.649 C 27.600 277.939,27.758 278.400,28.200 278.400 C 28.617 278.400,28.800 278.820,28.800 279.776 C 28.800 280.533,28.980 281.264,29.200 281.400 C 29.420 281.536,29.600 282.067,29.600 282.581 C 29.600 283.094,29.870 283.618,30.200 283.745 C 30.543 283.876,30.800 284.473,30.800 285.138 C 30.800 285.778,31.059 286.517,31.376 286.780 C 31.693 287.043,31.865 287.486,31.758 287.765 C 31.651 288.044,31.842 288.503,32.182 288.785 C 32.522 289.067,32.800 289.822,32.800 290.462 C 32.800 291.127,33.057 291.724,33.400 291.855 C 33.730 291.982,34.000 292.506,34.000 293.019 C 34.000 293.533,34.180 294.064,34.400 294.200 C 34.620 294.336,34.800 294.775,34.800 295.175 C 34.800 295.575,35.070 296.126,35.400 296.400 C 35.730 296.674,36.000 297.236,36.000 297.649 C 36.000 298.062,36.160 298.400,36.357 298.400 C 36.553 298.400,36.826 298.850,36.964 299.400 C 37.102 299.950,37.392 300.400,37.608 300.400 C 37.823 300.400,38.000 300.831,38.000 301.357 C 38.000 301.884,38.270 302.418,38.600 302.545 C 38.930 302.671,39.200 303.231,39.200 303.787 C 39.200 304.344,39.360 304.800,39.557 304.800 C 39.753 304.800,40.026 305.250,40.164 305.800 C 40.302 306.350,40.592 306.800,40.808 306.800 C 41.023 306.800,41.200 307.231,41.200 307.757 C 41.200 308.284,41.470 308.818,41.800 308.945 C 42.130 309.071,42.400 309.541,42.400 309.987 C 42.400 310.434,42.580 310.800,42.800 310.800 C 43.020 310.800,43.200 311.051,43.200 311.357 C 43.200 311.664,43.470 312.018,43.800 312.145 C 44.130 312.271,44.400 312.741,44.400 313.187 C 44.400 313.634,44.560 314.000,44.757 314.000 C 44.953 314.000,45.226 314.450,45.364 315.000 C 45.502 315.550,45.792 316.000,46.008 316.000 C 46.223 316.000,46.400 316.270,46.400 316.600 C 46.400 316.930,46.670 317.200,47.000 317.200 C 47.330 317.200,47.600 317.472,47.600 317.805 C 47.600 318.572,48.445 320.101,49.100 320.520 C 49.375 320.696,49.600 321.109,49.600 321.439 C 49.600 321.769,50.050 322.455,50.600 322.965 C 51.150 323.475,51.600 324.161,51.600 324.490 C 51.600 324.819,52.039 325.418,52.576 325.821 C 53.113 326.224,53.656 326.969,53.784 327.477 C 53.911 327.985,54.192 328.400,54.408 328.400 C 54.623 328.400,54.802 328.625,54.804 328.900 C 54.806 329.175,55.524 330.030,56.400 330.800 C 57.276 331.570,57.994 332.515,57.996 332.900 C 57.998 333.285,58.180 333.600,58.400 333.600 C 58.620 333.600,58.800 333.870,58.800 334.200 C 58.800 334.530,59.040 334.800,59.332 334.800 C 59.625 334.800,60.106 335.250,60.400 335.800 C 60.694 336.350,61.089 336.800,61.277 336.800 C 61.466 336.800,61.791 337.250,62.000 337.800 C 62.209 338.350,62.565 338.800,62.790 338.800 C 63.016 338.800,63.200 338.978,63.200 339.195 C 63.200 339.810,64.504 341.183,64.871 340.956 C 65.052 340.844,65.200 341.033,65.200 341.376 C 65.200 341.719,65.470 342.000,65.800 342.000 C 66.130 342.000,66.355 342.157,66.300 342.349 C 66.245 342.541,66.875 343.339,67.700 344.122 C 68.525 344.905,69.200 345.738,69.200 345.973 C 69.200 346.208,69.393 346.400,69.629 346.400 C 70.182 346.400,71.200 347.418,71.200 347.971 C 71.200 348.207,71.470 348.400,71.800 348.400 C 72.130 348.400,72.400 348.670,72.400 349.000 C 72.400 349.330,72.593 349.600,72.829 349.600 C 73.382 349.600,74.400 350.618,74.400 351.171 C 74.400 351.407,74.581 351.600,74.803 351.600 C 75.024 351.600,76.316 352.725,77.673 354.100 C 79.030 355.475,80.289 356.555,80.470 356.500 C 80.652 356.445,80.800 356.681,80.800 357.024 C 80.800 357.367,80.956 357.551,81.147 357.433 C 81.337 357.315,81.815 357.575,82.209 358.009 C 82.602 358.444,83.136 358.800,83.394 358.800 C 83.653 358.800,84.106 359.250,84.400 359.800 C 84.694 360.350,85.093 360.800,85.287 360.800 C 85.480 360.800,86.055 361.250,86.565 361.800 C 87.075 362.350,87.695 362.800,87.942 362.800 C 88.190 362.800,88.909 363.340,89.540 364.000 C 90.171 364.660,90.903 365.200,91.167 365.200 C 91.431 365.200,91.536 365.380,91.400 365.600 C 91.260 365.827,91.596 366.000,92.176 366.000 C 92.820 366.000,93.200 366.223,93.200 366.600 C 93.200 366.930,93.388 367.200,93.617 367.200 C 93.847 367.200,94.520 367.650,95.113 368.200 C 95.707 368.750,96.509 369.200,96.896 369.200 C 97.283 369.200,97.600 369.393,97.600 369.629 C 97.600 370.334,98.686 371.200,99.571 371.200 C 100.027 371.200,100.400 371.365,100.400 371.567 C 100.400 371.769,101.075 372.345,101.900 372.846 C 102.725 373.348,103.490 373.870,103.600 374.008 C 103.710 374.146,104.070 374.382,104.400 374.534 C 104.730 374.685,105.540 375.154,106.200 375.575 C 106.860 375.997,107.715 376.355,108.100 376.371 C 108.485 376.387,108.800 376.584,108.800 376.810 C 108.800 377.035,109.205 377.398,109.700 377.616 C 110.195 377.834,111.140 378.356,111.800 378.777 C 112.460 379.197,113.315 379.555,113.700 379.571 C 114.085 379.587,114.400 379.777,114.400 379.992 C 114.400 380.208,114.850 380.498,115.400 380.636 C 115.950 380.774,116.400 381.047,116.400 381.243 C 116.400 381.440,116.850 381.600,117.400 381.600 C 118.022 381.600,118.400 381.827,118.400 382.200 C 118.400 382.573,118.778 382.800,119.400 382.800 C 119.950 382.800,120.400 382.945,120.400 383.123 C 120.400 383.443,122.564 384.478,124.300 384.989 C 124.795 385.135,125.200 385.422,125.200 385.627 C 125.200 385.832,125.549 386.000,125.976 386.000 C 126.403 386.000,126.864 386.180,127.000 386.400 C 127.136 386.620,127.672 386.800,128.191 386.800 C 129.480 386.800,130.442 387.209,130.174 387.642 C 130.052 387.839,130.481 388.000,131.127 388.000 C 131.773 388.000,132.526 388.270,132.800 388.600 C 133.074 388.930,133.621 389.200,134.016 389.200 C 134.410 389.200,134.793 389.372,134.867 389.582 C 134.940 389.793,135.663 390.009,136.473 390.062 C 137.284 390.116,137.914 390.349,137.873 390.580 C 137.833 390.811,138.565 391.055,139.500 391.123 C 140.435 391.191,141.200 391.416,141.200 391.623 C 141.200 391.830,141.721 392.000,142.357 392.000 C 143.017 392.000,143.613 392.258,143.745 392.600 C 143.871 392.930,144.410 393.200,144.942 393.200 C 145.473 393.200,146.424 393.469,147.054 393.798 C 147.684 394.126,148.864 394.396,149.676 394.398 C 150.488 394.399,151.264 394.580,151.400 394.800 C 151.536 395.020,152.357 395.200,153.224 395.200 C 154.253 395.200,154.800 395.381,154.800 395.722 C 154.800 396.053,155.420 396.280,156.500 396.343 C 157.435 396.398,158.371 396.613,158.580 396.821 C 158.789 397.030,159.689 397.206,160.580 397.213 C 161.471 397.220,162.549 397.490,162.976 397.813 C 163.498 398.208,164.733 398.400,166.745 398.400 C 169.033 398.400,169.919 398.565,170.510 399.100 C 171.232 399.753,173.213 399.800,200.000 399.800 C 226.787 399.800,228.768 399.753,229.490 399.100 C 230.081 398.565,230.967 398.400,233.255 398.400 C 235.267 398.400,236.502 398.208,237.024 397.813 C 237.451 397.490,238.529 397.220,239.420 397.213 C 240.311 397.206,241.211 397.030,241.420 396.821 C 241.629 396.613,242.565 396.398,243.500 396.343 C 244.580 396.280,245.200 396.053,245.200 395.722 C 245.200 395.381,245.747 395.200,246.776 395.200 C 247.643 395.200,248.464 395.020,248.600 394.800 C 248.736 394.580,249.512 394.399,250.324 394.398 C 251.136 394.396,252.316 394.126,252.946 393.798 C 253.576 393.469,254.527 393.200,255.058 393.200 C 255.590 393.200,256.129 392.930,256.255 392.600 C 256.387 392.258,256.983 392.000,257.643 392.000 C 258.279 392.000,258.800 391.830,258.800 391.623 C 258.800 391.416,259.565 391.191,260.500 391.123 C 261.435 391.055,262.167 390.811,262.127 390.580 C 262.086 390.349,262.716 390.116,263.527 390.062 C 264.337 390.009,265.060 389.793,265.133 389.582 C 265.207 389.372,265.590 389.200,265.984 389.200 C 266.379 389.200,266.926 388.930,267.200 388.600 C 267.474 388.270,268.197 388.000,268.806 388.000 C 269.422 388.000,270.017 387.734,270.145 387.400 C 270.278 387.053,270.876 386.800,271.564 386.800 C 272.218 386.800,272.864 386.620,273.000 386.400 C 273.136 386.180,273.597 386.000,274.024 386.000 C 274.451 386.000,274.800 385.832,274.800 385.627 C 274.800 385.422,275.205 385.135,275.700 384.989 C 277.436 384.478,279.600 383.443,279.600 383.123 C 279.600 382.945,280.050 382.800,280.600 382.800 C 281.222 382.800,281.600 382.573,281.600 382.200 C 281.600 381.827,281.978 381.600,282.600 381.600 C 283.150 381.600,283.600 381.440,283.600 381.243 C 283.600 381.047,284.050 380.774,284.600 380.636 C 285.150 380.498,285.600 380.208,285.600 379.992 C 285.600 379.777,285.915 379.587,286.300 379.571 C 286.685 379.555,287.540 379.197,288.200 378.777 C 288.860 378.356,289.805 377.834,290.300 377.616 C 290.795 377.398,291.200 377.035,291.200 376.810 C 291.200 376.584,291.515 376.387,291.900 376.371 C 292.285 376.355,293.140 375.997,293.800 375.575 C 294.460 375.154,295.270 374.685,295.600 374.534 C 295.930 374.382,296.290 374.146,296.400 374.008 C 296.510 373.870,297.275 373.348,298.100 372.846 C 298.925 372.345,299.600 371.769,299.600 371.567 C 299.600 371.365,299.973 371.200,300.429 371.200 C 301.314 371.200,302.400 370.334,302.400 369.629 C 302.400 369.393,302.717 369.200,303.104 369.200 C 303.491 369.200,304.293 368.750,304.887 368.200 C 305.480 367.650,306.153 367.200,306.383 367.200 C 306.612 367.200,306.800 366.930,306.800 366.600 C 306.800 366.223,307.180 366.000,307.824 366.000 C 308.404 366.000,308.740 365.827,308.600 365.600 C 308.464 365.380,308.569 365.200,308.833 365.200 C 309.097 365.200,309.829 364.660,310.460 364.000 C 311.091 363.340,311.810 362.800,312.058 362.800 C 312.305 362.800,312.925 362.350,313.435 361.800 C 313.945 361.250,314.520 360.800,314.713 360.800 C 314.907 360.800,315.306 360.350,315.600 359.800 C 315.894 359.250,316.347 358.800,316.606 358.800 C 316.864 358.800,317.398 358.444,317.791 358.009 C 318.185 357.575,318.663 357.315,318.853 357.433 C 319.044 357.551,319.200 357.367,319.200 357.024 C 319.200 356.681,319.348 356.445,319.530 356.500 C 319.711 356.555,320.970 355.475,322.327 354.100 C 323.684 352.725,324.976 351.600,325.197 351.600 C 325.419 351.600,325.600 351.407,325.600 351.171 C 325.600 350.618,326.618 349.600,327.171 349.600 C 327.407 349.600,327.600 349.330,327.600 349.000 C 327.600 348.670,327.870 348.400,328.200 348.400 C 328.530 348.400,328.800 348.207,328.800 347.971 C 328.800 347.418,329.818 346.400,330.371 346.400 C 330.607 346.400,330.800 346.208,330.800 345.973 C 330.800 345.738,331.475 344.905,332.300 344.122 C 333.125 343.339,333.755 342.541,333.700 342.349 C 333.645 342.157,333.794 342.000,334.031 342.000 C 334.591 342.000,336.800 339.791,336.800 339.231 C 336.800 338.994,336.984 338.800,337.210 338.800 C 337.435 338.800,337.791 338.350,338.000 337.800 C 338.209 337.250,338.534 336.800,338.723 336.800 C 338.911 336.800,339.306 336.350,339.600 335.800 C 339.894 335.250,340.375 334.800,340.668 334.800 C 340.960 334.800,341.200 334.530,341.200 334.200 C 341.200 333.870,341.380 333.600,341.600 333.600 C 341.820 333.600,342.002 333.285,342.004 332.900 C 342.006 332.515,342.724 331.570,343.600 330.800 C 344.476 330.030,345.194 329.175,345.196 328.900 C 345.198 328.625,345.377 328.400,345.592 328.400 C 345.808 328.400,346.089 327.985,346.216 327.477 C 346.344 326.969,346.887 326.224,347.424 325.821 C 347.961 325.418,348.400 324.819,348.400 324.490 C 348.400 324.161,348.850 323.475,349.400 322.965 C 349.950 322.455,350.400 321.769,350.400 321.439 C 350.400 321.109,350.625 320.696,350.900 320.520 C 351.555 320.101,352.400 318.572,352.400 317.805 C 352.400 317.472,352.670 317.200,353.000 317.200 C 353.330 317.200,353.600 316.930,353.600 316.600 C 353.600 316.270,353.777 316.000,353.992 316.000 C 354.208 316.000,354.498 315.550,354.636 315.000 C 354.774 314.450,355.047 314.000,355.243 314.000 C 355.440 314.000,355.600 313.634,355.600 313.187 C 355.600 312.741,355.870 312.271,356.200 312.145 C 356.530 312.018,356.800 311.664,356.800 311.357 C 356.800 311.051,356.980 310.800,357.200 310.800 C 357.420 310.800,357.600 310.434,357.600 309.987 C 357.600 309.541,357.870 309.071,358.200 308.945 C 358.530 308.818,358.800 308.284,358.800 307.757 C 358.800 307.231,358.977 306.800,359.192 306.800 C 359.408 306.800,359.698 306.350,359.836 305.800 C 359.974 305.250,360.247 304.800,360.443 304.800 C 360.640 304.800,360.800 304.344,360.800 303.787 C 360.800 303.231,361.070 302.671,361.400 302.545 C 361.730 302.418,362.000 301.884,362.000 301.357 C 362.000 300.831,362.177 300.400,362.392 300.400 C 362.608 300.400,362.898 299.950,363.036 299.400 C 363.174 298.850,363.447 298.400,363.643 298.400 C 363.840 298.400,364.000 298.062,364.000 297.649 C 364.000 297.236,364.270 296.674,364.600 296.400 C 364.930 296.126,365.200 295.575,365.200 295.175 C 365.200 294.775,365.380 294.336,365.600 294.200 C 365.820 294.064,366.000 293.533,366.000 293.019 C 366.000 292.506,366.270 291.982,366.600 291.855 C 366.943 291.724,367.200 291.127,367.200 290.462 C 367.200 289.822,367.478 289.067,367.818 288.785 C 368.158 288.503,368.349 288.044,368.242 287.765 C 368.135 287.486,368.307 287.043,368.624 286.780 C 368.941 286.517,369.200 285.778,369.200 285.138 C 369.200 284.473,369.457 283.876,369.800 283.745 C 370.130 283.618,370.400 283.094,370.400 282.581 C 370.400 282.067,370.580 281.536,370.800 281.400 C 371.020 281.264,371.200 280.553,371.200 279.819 C 371.200 279.003,371.433 278.396,371.800 278.255 C 372.192 278.105,372.400 277.482,372.400 276.462 C 372.400 275.560,372.654 274.687,373.000 274.400 C 373.330 274.126,373.600 273.294,373.600 272.551 C 373.600 271.808,373.780 271.200,374.000 271.200 C 374.220 271.200,374.400 270.499,374.400 269.643 C 374.400 268.628,374.609 268.005,375.000 267.855 C 375.394 267.704,375.600 267.080,375.600 266.036 C 375.600 265.162,375.780 264.336,376.000 264.200 C 376.220 264.064,376.400 262.793,376.400 261.376 C 376.400 259.353,376.529 258.800,377.000 258.800 C 377.461 258.800,377.600 258.287,377.600 256.586 C 377.600 255.332,377.850 253.988,378.178 253.486 C 378.495 252.999,378.798 251.655,378.849 250.500 C 378.901 249.345,379.091 248.400,379.271 248.400 C 379.452 248.400,379.600 246.611,379.600 244.424 C 379.600 241.972,379.768 240.343,380.038 240.176 C 380.280 240.027,380.400 239.379,380.305 238.735 C 380.211 238.091,380.283 237.472,380.467 237.359 C 381.214 236.897,380.862 203.533,380.100 202.663 C 379.715 202.223,379.625 201.994,379.900 202.155 C 380.518 202.516,380.617 199.781,380.000 199.400 C 379.780 199.264,379.600 197.489,379.600 195.456 C 379.600 193.423,379.433 191.589,379.229 191.380 C 379.026 191.171,378.774 189.926,378.671 188.614 C 378.567 187.301,378.284 186.161,378.041 186.080 C 377.799 186.000,377.600 185.048,377.600 183.967 C 377.600 182.485,377.452 182.000,377.000 182.000 C 376.524 182.000,376.400 181.425,376.400 179.224 C 376.400 177.697,376.220 176.336,376.000 176.200 C 375.780 176.064,375.600 175.238,375.600 174.364 C 375.600 173.320,375.394 172.696,375.000 172.545 C 374.609 172.395,374.400 171.772,374.400 170.757 C 374.400 169.901,374.220 169.200,374.000 169.200 C 373.780 169.200,373.600 168.682,373.600 168.049 C 373.600 167.416,373.330 166.674,373.000 166.400 C 372.633 166.095,372.400 165.218,372.400 164.138 C 372.400 162.940,372.208 162.301,371.800 162.145 C 371.430 162.003,371.200 161.395,371.200 160.557 C 371.200 159.811,371.020 159.200,370.800 159.200 C 370.580 159.200,370.400 158.660,370.400 158.000 C 370.400 157.200,370.200 156.800,369.800 156.800 C 369.383 156.800,369.200 156.380,369.200 155.424 C 369.200 154.667,369.040 153.949,368.845 153.828 C 368.650 153.707,368.372 152.977,368.227 152.204 C 368.082 151.432,367.804 150.800,367.608 150.800 C 367.413 150.800,367.196 150.305,367.127 149.700 C 367.055 149.081,366.781 148.644,366.500 148.700 C 366.189 148.762,366.000 148.347,366.000 147.600 C 366.000 146.940,365.820 146.400,365.600 146.400 C 365.380 146.400,365.200 145.963,365.200 145.429 C 365.200 144.894,364.930 144.187,364.600 143.857 C 364.270 143.527,364.000 143.061,364.000 142.821 C 364.000 142.581,363.570 141.703,363.044 140.870 C 362.519 140.038,362.013 139.006,361.921 138.578 C 361.828 138.150,361.576 137.833,361.359 137.872 C 361.143 137.912,360.939 137.586,360.906 137.149 C 360.811 135.883,359.852 134.000,359.302 134.000 C 359.026 134.000,358.800 133.550,358.800 133.000 C 358.800 132.450,358.655 132.000,358.477 132.000 C 358.299 132.000,357.820 131.235,357.411 130.300 C 357.003 129.365,356.248 128.043,355.734 127.362 C 355.220 126.681,354.800 125.918,354.800 125.666 C 354.800 125.413,354.215 124.636,353.500 123.938 C 352.785 123.239,352.441 122.809,352.736 122.980 C 353.031 123.151,352.761 122.506,352.136 121.546 C 351.511 120.586,350.865 119.740,350.700 119.667 C 350.535 119.593,350.400 119.278,350.400 118.967 C 350.400 118.655,350.241 118.400,350.047 118.400 C 349.852 118.400,349.594 118.022,349.474 117.560 C 349.349 117.084,349.064 116.837,348.817 116.989 C 348.577 117.138,348.406 117.111,348.437 116.930 C 348.597 116.009,348.345 115.200,347.898 115.200 C 347.621 115.200,347.142 114.615,346.832 113.900 C 346.522 113.185,345.848 112.170,345.334 111.645 C 344.820 111.120,344.400 110.535,344.400 110.345 C 344.400 110.155,344.130 110.000,343.800 110.000 C 343.464 110.000,343.200 109.643,343.200 109.187 C 343.200 108.741,342.930 108.271,342.600 108.145 C 342.270 108.018,342.000 107.730,342.000 107.504 C 342.000 107.279,341.370 106.500,340.600 105.774 C 339.830 105.048,339.200 104.277,339.200 104.060 C 339.200 103.844,338.480 102.895,337.600 101.951 C 336.720 101.008,336.000 100.092,336.000 99.918 C 336.000 99.743,335.760 99.600,335.468 99.600 C 335.175 99.600,334.694 99.150,334.400 98.600 C 334.106 98.050,333.625 97.600,333.332 97.600 C 333.040 97.600,332.800 97.330,332.800 97.000 C 332.800 96.670,332.530 96.400,332.200 96.400 C 331.671 96.400,331.600 92.378,331.600 62.600 C 331.600 40.333,331.464 28.800,331.200 28.800 C 330.980 28.800,330.800 28.012,330.800 27.049 C 330.800 25.980,330.566 25.104,330.200 24.800 C 329.840 24.501,329.600 23.626,329.600 22.612 C 329.600 20.982,328.749 18.663,327.975 18.184 C 327.769 18.057,327.600 17.629,327.600 17.232 C 327.600 16.836,327.150 16.174,326.600 15.761 C 326.050 15.348,325.600 14.687,325.600 14.293 C 325.600 13.898,325.330 13.471,325.000 13.345 C 324.670 13.218,324.400 12.926,324.400 12.695 C 324.400 12.464,323.702 11.591,322.850 10.755 C 321.997 9.920,321.193 8.958,321.062 8.618 C 320.932 8.278,320.459 8.000,320.013 8.000 C 319.557 8.000,319.200 7.736,319.200 7.400 C 319.200 7.070,319.011 6.800,318.781 6.800 C 318.550 6.800,317.945 6.350,317.435 5.800 C 316.925 5.250,316.259 4.797,315.954 4.793 C 315.649 4.789,314.976 4.339,314.458 3.793 C 313.873 3.176,313.072 2.800,312.345 2.800 C 311.674 2.800,311.077 2.544,310.945 2.200 C 310.787 1.789,310.144 1.600,308.901 1.600 C 307.648 1.600,306.933 1.388,306.585 0.912 C 306.030 0.152,292.084 -0.276,288.492 0.355 M300.069 10.830 C 305.559 11.939,307.195 12.590,310.400 14.944 C 314.706 18.106,317.493 21.739,319.097 26.279 L 320.200 29.400 320.200 133.000 C 320.200 243.326,320.244 240.448,318.430 247.600 C 318.234 248.370,317.768 250.350,317.394 252.000 C 315.379 260.877,312.174 270.277,309.197 276.042 C 305.802 282.617,304.159 285.424,300.691 290.575 C 299.121 292.906,298.702 293.468,297.700 294.585 C 297.425 294.892,297.200 295.321,297.200 295.538 C 297.200 295.755,297.064 295.993,296.897 296.067 C 296.730 296.140,295.977 297.010,295.222 298.000 C 291.728 302.583,280.048 314.243,275.199 317.990 C 274.209 318.754,273.310 319.480,273.200 319.603 C 272.919 319.917,268.774 322.916,267.953 323.400 C 267.579 323.620,265.232 325.075,262.737 326.633 C 258.983 328.977,252.148 332.546,248.600 334.015 C 248.160 334.197,247.170 334.622,246.400 334.959 C 244.537 335.774,236.613 338.356,234.600 338.803 C 233.720 338.998,231.920 339.449,230.600 339.805 C 214.258 344.207,189.321 344.206,173.000 339.804 C 171.680 339.448,169.970 339.002,169.200 338.813 C 160.081 336.574,148.667 331.628,139.800 326.071 C 138.018 324.955,128.314 318.023,128.000 317.642 C 127.890 317.509,126.900 316.684,125.800 315.808 C 122.957 313.544,112.864 303.451,110.593 300.600 C 109.542 299.280,108.567 298.110,108.426 298.000 C 107.729 297.454,99.600 285.831,99.600 285.379 C 99.600 285.289,98.994 284.267,98.253 283.108 C 97.168 281.411,94.241 275.586,91.968 270.600 C 91.428 269.418,89.565 264.325,89.334 263.400 C 89.223 262.960,88.988 262.240,88.811 261.800 C 88.342 260.637,87.522 257.646,87.166 255.800 C 86.996 254.920,86.475 252.580,86.008 250.600 C 84.575 244.520,84.398 243.546,83.901 239.000 C 82.428 225.516,83.656 205.839,86.576 196.125 C 86.919 194.984,87.200 193.711,87.200 193.296 C 87.200 192.882,87.451 191.745,87.758 190.771 C 88.065 189.797,88.630 187.920,89.013 186.600 C 89.397 185.280,89.828 184.020,89.972 183.800 C 90.115 183.580,90.471 182.680,90.763 181.800 C 91.946 178.225,94.830 171.897,97.235 167.600 C 98.917 164.593,102.093 159.445,102.416 159.200 C 102.562 159.090,103.162 158.280,103.750 157.400 C 104.338 156.520,105.310 155.150,105.910 154.356 C 107.736 151.937,109.384 149.811,109.598 149.600 C 109.709 149.490,111.150 147.874,112.800 146.008 C 116.029 142.358,118.959 139.377,122.444 136.200 C 124.832 134.022,126.422 132.710,131.800 128.480 C 139.439 122.471,152.031 115.683,160.983 112.749 C 162.312 112.314,163.713 111.787,164.095 111.579 C 164.477 111.370,165.206 111.200,165.715 111.200 C 166.224 111.200,166.811 111.044,167.020 110.853 C 167.229 110.662,168.840 110.193,170.600 109.810 C 172.360 109.428,174.728 108.864,175.862 108.557 C 176.995 108.251,178.333 108.000,178.833 108.000 C 179.334 108.000,180.296 107.830,180.972 107.622 C 188.149 105.414,215.451 105.414,222.628 107.622 C 223.304 107.830,224.266 108.000,224.767 108.000 C 225.267 108.000,226.605 108.251,227.738 108.557 C 228.872 108.864,231.240 109.428,233.000 109.810 C 234.760 110.193,236.371 110.662,236.580 110.853 C 236.789 111.044,237.325 111.200,237.772 111.200 C 238.602 111.200,242.848 112.672,248.200 114.816 C 253.969 117.127,263.619 122.533,269.619 126.813 C 271.150 127.906,272.492 128.800,272.601 128.800 C 272.711 128.800,272.800 107.245,272.800 80.900 C 272.801 30.650,272.799 30.694,274.506 25.600 C 276.471 19.736,283.898 13.037,290.000 11.625 C 294.419 10.602,295.083 10.480,296.469 10.441 C 297.278 10.419,298.898 10.594,300.069 10.830 M192.800 153.986 C 192.250 154.170,191.050 154.338,190.132 154.360 C 188.599 154.397,185.860 154.953,181.800 156.053 C 180.233 156.477,178.400 157.136,175.600 158.281 C 174.830 158.596,173.840 159.000,173.400 159.179 C 171.089 160.119,164.010 163.864,163.600 164.364 C 163.490 164.498,162.590 165.131,161.600 165.770 C 157.978 168.109,148.788 176.678,146.063 180.257 L 144.802 181.913 145.440 183.889 C 147.045 188.859,149.491 190.343,164.000 195.153 C 195.389 205.557,200.055 207.113,201.400 207.623 C 201.840 207.789,205.440 208.945,209.400 210.191 C 213.360 211.437,216.960 212.616,217.400 212.813 C 217.840 213.009,223.510 214.903,230.000 217.022 C 236.490 219.141,242.160 221.016,242.600 221.189 C 243.040 221.361,245.200 222.076,247.400 222.778 C 251.461 224.073,251.869 224.222,254.460 225.359 C 255.264 225.712,256.050 226.000,256.207 226.000 C 256.814 226.000,267.115 231.153,269.281 232.539 C 272.166 234.387,272.239 234.378,272.546 232.144 C 273.355 226.240,272.368 211.415,270.818 206.200 C 266.575 191.920,259.140 180.161,248.565 171.006 C 247.044 169.689,245.710 168.518,245.600 168.404 C 245.269 168.059,241.078 165.026,239.913 164.288 C 236.249 161.966,228.472 158.101,226.200 157.474 C 225.760 157.352,224.610 156.963,223.644 156.609 C 221.485 155.817,217.066 154.807,213.600 154.313 C 210.123 153.817,194.062 153.565,192.800 153.986 M131.165 216.676 C 130.055 219.553,131.500 239.850,133.111 244.000 C 133.325 244.550,133.817 245.990,134.205 247.200 C 134.594 248.410,135.067 249.571,135.256 249.780 C 135.445 249.989,135.600 250.398,135.600 250.688 C 135.600 253.140,143.029 265.377,147.791 270.768 C 151.115 274.530,160.570 283.200,161.350 283.200 C 161.438 283.200,162.564 283.904,163.854 284.765 C 166.277 286.382,173.135 289.912,175.600 290.810 C 176.370 291.090,177.540 291.536,178.200 291.799 C 180.495 292.716,183.404 293.604,184.105 293.602 C 184.493 293.601,185.123 293.762,185.505 293.960 C 189.228 295.891,211.482 295.878,218.600 293.942 C 221.426 293.173,224.166 292.293,225.460 291.739 C 226.154 291.443,226.921 291.200,227.166 291.200 C 227.411 291.200,227.923 291.037,228.305 290.837 C 228.687 290.637,230.620 289.696,232.600 288.745 C 236.289 286.973,240.572 284.488,242.464 283.024 C 243.049 282.571,243.885 281.930,244.321 281.600 C 248.407 278.507,256.645 270.437,257.205 268.978 C 258.328 266.053,254.656 260.059,250.600 258.195 C 249.183 257.545,242.253 255.135,238.000 253.815 C 236.350 253.303,234.190 252.583,233.200 252.215 C 232.210 251.848,231.040 251.454,230.600 251.340 C 230.160 251.226,229.440 250.982,229.000 250.797 C 228.560 250.612,227.030 250.100,225.600 249.659 C 223.114 248.892,221.133 248.228,219.400 247.582 C 218.960 247.418,209.690 244.371,198.800 240.811 C 187.910 237.251,178.687 234.172,178.305 233.969 C 177.923 233.766,177.345 233.600,177.019 233.600 C 176.693 233.600,175.836 233.348,175.114 233.041 C 174.391 232.733,171.460 231.733,168.600 230.818 C 165.740 229.903,163.040 229.010,162.600 228.832 C 162.160 228.655,160.810 228.197,159.600 227.815 C 158.390 227.433,156.230 226.715,154.800 226.220 C 153.370 225.725,151.480 225.092,150.600 224.812 C 149.720 224.532,148.051 223.875,146.890 223.353 C 145.730 222.830,143.660 221.933,142.290 221.361 C 139.701 220.278,135.330 217.990,133.600 216.812 C 131.696 215.516,131.614 215.511,131.165 216.676 " stroke="none" fill="#045c64" fill-rule="evenodd"></path><path id="path3" d="M293.788 11.213 C 284.619 12.427,276.801 19.035,274.252 27.724 C 273.417 30.571,273.408 31.098,273.294 79.900 C 273.199 120.491,273.085 129.200,272.649 129.200 C 272.358 129.200,270.733 128.205,269.039 126.990 C 257.581 118.769,244.258 112.726,231.200 109.827 C 229.550 109.461,227.570 108.999,226.800 108.801 C 215.309 105.847,192.860 105.547,180.000 108.175 C 172.763 109.654,167.193 111.018,164.400 111.994 C 148.739 117.466,139.953 122.326,127.331 132.496 C 122.483 136.402,112.572 146.409,109.202 150.800 C 108.442 151.790,107.719 152.690,107.596 152.800 C 107.074 153.264,102.034 160.408,100.523 162.825 C 80.106 195.491,77.940 240.962,95.113 276.400 C 106.990 300.908,131.259 323.868,155.949 333.953 C 190.647 348.127,232.527 345.044,263.000 326.073 C 269.023 322.323,273.045 319.331,279.200 314.022 C 293.164 301.977,305.760 284.682,311.551 269.600 C 312.269 267.730,313.022 265.840,313.224 265.400 C 313.683 264.402,316.334 255.162,316.782 253.000 C 316.965 252.120,317.415 250.050,317.782 248.400 C 320.079 238.085,320.000 242.232,320.000 132.310 L 320.000 31.571 319.135 28.122 C 316.401 17.222,305.139 9.709,293.788 11.213 M302.504 12.375 C 310.173 14.337,316.384 20.327,318.496 27.800 L 319.400 31.000 319.525 130.200 C 319.653 231.380,319.629 233.302,318.160 242.800 C 316.828 251.411,314.357 260.803,311.436 268.363 C 301.099 295.118,275.822 321.317,249.500 332.559 C 248.675 332.912,247.384 333.472,246.631 333.804 C 242.735 335.523,233.113 338.296,225.200 339.979 C 210.666 343.072,192.794 343.081,178.600 340.002 C 172.740 338.731,170.747 338.265,168.800 337.710 C 164.296 336.426,158.121 334.286,155.672 333.161 C 154.282 332.523,153.072 332.000,152.983 332.000 C 152.698 332.000,147.482 329.394,145.000 328.013 C 143.015 326.908,137.803 323.541,133.833 320.800 C 132.946 320.188,128.608 316.860,126.800 315.405 C 124.856 313.840,111.787 300.768,110.893 299.493 C 110.394 298.782,109.261 297.300,108.375 296.200 C 105.999 293.250,102.037 287.496,99.562 283.400 C 79.598 250.363,79.140 201.027,98.486 167.400 C 101.305 162.499,106.852 154.216,107.996 153.200 C 108.119 153.090,108.842 152.190,109.602 151.200 C 113.323 146.352,123.552 136.123,128.400 132.402 C 129.390 131.642,130.290 130.919,130.400 130.796 C 131.974 129.025,149.394 118.000,150.618 118.000 C 150.687 118.000,151.882 117.482,153.272 116.849 C 155.923 115.643,161.752 113.361,163.800 112.729 C 165.966 112.060,174.165 109.917,175.800 109.592 C 194.170 105.943,209.430 105.943,227.800 109.592 C 242.380 112.488,256.728 118.815,269.337 127.907 C 271.296 129.320,273.124 130.361,273.437 130.241 C 273.917 130.057,274.001 122.751,274.007 80.713 C 274.013 34.247,274.056 31.238,274.745 28.600 C 277.942 16.358,290.158 9.218,302.504 12.375 M194.600 152.799 C 176.116 154.297,161.305 162.135,146.350 178.330 C 141.926 183.121,144.566 181.009,150.727 174.828 C 182.558 142.896,232.381 146.100,259.156 181.800 C 262.763 186.609,268.400 196.395,268.400 197.848 C 268.400 197.975,268.659 198.646,268.976 199.340 C 271.851 205.628,272.996 213.013,272.986 225.200 C 272.977 235.134,273.007 235.574,273.454 232.200 C 275.981 213.142,269.208 191.391,256.401 177.438 C 239.147 158.639,219.447 150.785,194.600 152.799 M130.251 215.304 C 129.732 217.242,129.999 232.980,130.613 236.600 C 135.277 264.107,155.347 286.246,183.000 294.383 C 191.875 296.995,211.599 297.001,220.600 294.394 C 230.893 291.413,239.706 286.777,247.600 280.189 C 251.245 277.148,258.000 270.239,258.000 269.552 C 258.000 269.279,256.335 270.831,254.300 273.000 C 219.812 309.769,160.573 301.431,137.789 256.600 C 133.924 248.995,132.452 244.212,130.821 233.954 C 130.301 230.687,130.265 217.865,130.771 216.103 C 130.974 215.392,130.995 214.720,130.816 214.610 C 130.637 214.499,130.383 214.812,130.251 215.304 " stroke="none" fill="#74a4ac" fill-rule="evenodd"></path><path id="path4" d="M294.000 10.776 C 293.401 10.953,294.524 11.071,296.800 11.071 C 299.076 11.071,300.199 10.953,299.600 10.776 C 299.050 10.613,297.790 10.480,296.800 10.480 C 295.810 10.480,294.550 10.613,294.000 10.776 M288.728 11.931 C 287.699 12.299,286.709 12.764,286.528 12.964 C 286.333 13.180,286.525 13.198,287.000 13.008 C 287.440 12.832,288.880 12.366,290.200 11.973 C 291.520 11.579,292.150 11.258,291.600 11.259 C 291.050 11.261,289.758 11.563,288.728 11.931 M303.200 11.972 C 310.709 13.994,316.985 20.224,319.032 27.687 C 319.532 29.509,319.954 30.618,319.970 30.151 C 320.228 22.815,308.757 10.986,301.629 11.236 C 301.035 11.257,301.699 11.568,303.200 11.972 M283.560 14.472 C 280.002 17.042,274.792 23.236,274.804 24.881 C 274.806 25.166,275.333 24.483,275.976 23.362 C 277.516 20.678,280.833 17.077,283.744 14.929 C 285.033 13.978,285.915 13.200,285.704 13.200 C 285.493 13.200,284.528 13.772,283.560 14.472 M274.031 27.062 C 273.797 27.908,273.615 28.960,273.629 29.400 C 273.642 29.840,273.914 29.228,274.233 28.040 C 274.553 26.853,274.734 25.801,274.636 25.703 C 274.538 25.605,274.266 26.217,274.031 27.062 M273.053 31.636 C 272.914 32.331,272.800 54.477,272.800 80.850 C 272.800 107.222,272.711 128.800,272.601 128.800 C 272.492 128.800,271.150 127.906,269.619 126.813 C 264.896 123.443,258.800 119.830,253.791 117.431 C 251.156 116.169,248.595 114.941,248.101 114.701 C 247.606 114.461,247.105 114.362,246.988 114.479 C 246.870 114.596,247.365 114.925,248.087 115.210 C 253.727 117.436,262.953 122.623,269.039 126.990 C 270.733 128.205,272.358 129.200,272.651 129.200 C 273.078 129.200,273.773 31.499,273.353 30.486 C 273.327 30.423,273.192 30.941,273.053 31.636 M320.197 131.600 C 320.197 186.710,320.243 209.255,320.300 181.700 C 320.357 154.145,320.357 109.055,320.300 81.500 C 320.243 53.945,320.197 76.490,320.197 131.600 M187.400 106.611 L 184.600 107.128 188.000 106.864 C 192.398 106.523,210.745 106.523,215.400 106.864 L 219.000 107.128 216.000 106.589 C 211.970 105.865,191.358 105.881,187.400 106.611 M180.800 107.600 C 180.061 108.077,181.124 108.077,183.000 107.600 L 184.200 107.295 182.800 107.253 C 182.030 107.231,181.130 107.387,180.800 107.600 M220.600 107.600 C 222.476 108.077,223.539 108.077,222.800 107.600 C 222.470 107.387,221.570 107.231,220.800 107.253 L 219.400 107.295 220.600 107.600 M175.800 108.646 L 174.200 109.208 175.600 109.001 C 176.370 108.888,177.720 108.637,178.600 108.443 L 180.200 108.092 178.800 108.088 C 178.030 108.086,176.680 108.337,175.800 108.646 M225.000 108.434 C 228.628 109.191,229.534 109.252,227.600 108.610 C 226.610 108.281,225.260 108.032,224.600 108.056 C 223.528 108.095,223.571 108.136,225.000 108.434 M169.729 109.953 C 167.558 110.521,165.993 111.234,167.033 111.181 C 167.997 111.132,174.071 109.263,173.200 109.283 C 172.650 109.296,171.088 109.598,169.729 109.953 M232.200 110.020 C 233.740 110.422,235.450 110.877,236.000 111.030 C 236.661 111.215,236.865 111.175,236.600 110.913 C 236.166 110.482,230.977 109.170,230.000 109.243 C 229.670 109.268,230.660 109.617,232.200 110.020 M164.274 111.460 C 164.131 111.603,162.976 112.058,161.707 112.472 C 157.304 113.909,152.614 115.947,152.946 116.280 C 153.075 116.409,153.410 116.330,153.690 116.105 C 154.161 115.726,160.578 113.266,164.800 111.844 C 166.189 111.377,166.364 111.234,165.567 111.219 C 164.998 111.209,164.416 111.317,164.274 111.460 M241.589 112.795 C 244.113 113.653,246.234 114.300,246.302 114.231 C 246.370 114.163,245.925 113.919,245.313 113.687 C 240.474 111.859,238.473 111.202,237.792 111.217 C 237.356 111.226,239.065 111.936,241.589 112.795 M147.600 118.454 C 142.138 121.354,135.520 125.553,131.800 128.480 C 126.422 132.710,124.832 134.022,122.444 136.200 C 118.959 139.377,116.029 142.358,112.800 146.008 C 111.150 147.874,109.709 149.490,109.598 149.600 C 109.384 149.811,107.736 151.937,105.910 154.356 C 105.310 155.150,104.338 156.520,103.750 157.400 C 103.162 158.280,102.564 159.090,102.422 159.200 C 101.391 159.999,93.593 173.904,93.607 174.919 C 93.610 175.184,94.704 173.330,96.036 170.800 C 99.423 164.368,105.864 154.339,107.596 152.800 C 107.719 152.690,108.442 151.790,109.202 150.800 C 118.577 138.585,134.891 125.315,149.600 117.940 C 151.250 117.112,152.330 116.435,152.000 116.436 C 151.670 116.436,149.690 117.344,147.600 118.454 M190.800 153.831 L 187.800 154.359 190.600 154.107 C 194.244 153.779,209.399 153.781,213.000 154.111 L 215.800 154.367 212.600 153.814 C 208.465 153.098,194.904 153.109,190.800 153.831 M183.010 155.252 C 180.328 156.016,178.736 156.755,180.800 156.278 C 181.350 156.151,183.049 155.762,184.577 155.414 C 186.104 155.065,187.439 154.695,187.543 154.590 C 187.969 154.164,185.629 154.505,183.010 155.252 M216.056 154.589 C 216.160 154.693,217.495 155.050,219.023 155.381 C 220.550 155.713,222.250 156.104,222.800 156.251 C 223.350 156.398,223.681 156.388,223.536 156.228 C 223.212 155.873,217.693 154.416,216.633 154.407 C 216.212 154.403,215.952 154.485,216.056 154.589 M175.294 157.891 C 173.475 158.677,172.074 159.407,172.179 159.513 C 172.285 159.618,173.053 159.399,173.886 159.025 C 174.719 158.652,175.760 158.203,176.200 158.028 C 178.401 157.152,179.737 156.452,179.200 156.456 C 178.870 156.458,177.112 157.104,175.294 157.891 M224.800 157.000 C 225.350 157.314,226.160 157.571,226.600 157.570 C 227.152 157.569,226.983 157.388,226.054 156.984 C 224.337 156.239,223.487 156.250,224.800 157.000 M227.600 157.836 C 227.600 158.104,231.278 159.655,231.466 159.467 C 231.550 159.383,230.715 158.939,229.609 158.479 C 228.504 158.020,227.600 157.731,227.600 157.836 M167.600 161.541 C 163.704 163.727,157.779 167.867,156.600 169.228 L 155.800 170.151 157.036 169.294 C 157.715 168.823,158.494 168.169,158.766 167.841 C 159.039 167.512,160.193 166.655,161.331 165.935 C 162.469 165.215,163.490 164.512,163.600 164.373 C 163.832 164.080,167.904 161.787,170.100 160.714 C 171.502 160.029,171.995 159.578,171.300 159.617 C 171.135 159.626,169.470 160.492,167.600 161.541 M232.000 159.779 C 232.000 159.877,232.855 160.391,233.900 160.921 C 238.152 163.075,244.191 166.938,245.600 168.404 C 245.710 168.518,247.044 169.689,248.565 171.006 C 254.542 176.180,261.935 185.424,265.037 191.599 C 265.607 192.733,266.155 193.578,266.256 193.477 C 266.357 193.377,266.052 192.598,265.579 191.747 C 258.237 178.544,247.810 167.960,235.551 161.265 C 232.597 159.652,232.000 159.402,232.000 159.779 M149.815 175.671 C 143.554 182.170,143.511 182.293,146.032 186.390 C 148.712 190.745,148.182 190.514,178.566 200.587 C 192.665 205.261,214.898 212.631,227.974 216.964 C 256.563 226.438,261.661 228.453,269.240 233.268 C 272.949 235.625,272.814 235.624,272.736 233.300 C 272.687 231.840,272.635 231.701,272.511 232.700 C 272.307 234.338,272.070 234.326,269.281 232.539 C 267.115 231.153,256.814 226.000,256.207 226.000 C 256.050 226.000,255.264 225.712,254.460 225.359 C 251.869 224.222,251.461 224.073,247.400 222.778 C 245.200 222.076,243.040 221.361,242.600 221.189 C 242.160 221.016,236.490 219.141,230.000 217.022 C 223.510 214.903,217.840 213.009,217.400 212.813 C 216.960 212.616,213.360 211.437,209.400 210.191 C 205.440 208.945,201.840 207.789,201.400 207.623 C 200.055 207.113,195.389 205.557,164.000 195.153 C 149.491 190.343,147.045 188.859,145.440 183.889 L 144.802 181.913 146.066 180.257 C 146.761 179.345,149.196 176.730,151.476 174.445 C 153.757 172.159,155.551 170.218,155.464 170.131 C 155.377 170.044,152.835 172.537,149.815 175.671 M92.832 176.339 C 92.595 176.784,92.407 177.384,92.416 177.674 C 92.425 177.963,92.709 177.689,93.047 177.065 C 93.386 176.440,93.573 175.840,93.464 175.730 C 93.354 175.621,93.070 175.895,92.832 176.339 M91.750 179.043 C 91.603 179.459,91.238 180.407,90.941 181.149 C 90.643 181.891,90.408 182.701,90.417 182.949 C 90.426 183.197,90.876 182.335,91.417 181.033 C 91.957 179.731,92.314 178.580,92.209 178.476 C 92.104 178.371,91.898 178.626,91.750 179.043 M89.824 184.043 C 88.812 186.930,88.416 188.292,88.438 188.800 C 88.452 189.130,88.887 188.143,89.405 186.606 C 89.922 185.070,90.272 183.739,90.182 183.649 C 90.092 183.559,89.931 183.736,89.824 184.043 M87.681 191.088 C 87.416 191.971,87.213 193.032,87.228 193.446 C 87.243 193.861,87.523 193.330,87.850 192.266 C 88.177 191.202,88.380 190.141,88.303 189.908 C 88.225 189.675,87.945 190.206,87.681 191.088 M266.419 194.174 C 266.390 194.740,268.065 198.068,268.273 197.860 C 268.373 197.760,268.001 196.806,267.446 195.739 C 266.891 194.673,266.429 193.968,266.419 194.174 M86.600 195.600 C 86.450 196.073,86.417 196.550,86.527 196.660 C 86.637 196.770,86.850 196.473,87.000 196.000 C 87.150 195.527,87.183 195.050,87.073 194.940 C 86.963 194.830,86.750 195.127,86.600 195.600 M85.855 198.400 C 85.216 201.380,85.188 203.103,85.819 200.608 C 86.151 199.292,86.363 197.942,86.289 197.608 C 86.215 197.274,86.019 197.630,85.855 198.400 M268.409 198.533 C 268.404 198.716,268.838 200.156,269.373 201.733 C 269.909 203.310,270.550 205.383,270.800 206.340 C 271.049 207.298,271.346 207.987,271.460 207.873 C 271.705 207.628,269.811 201.138,268.987 199.400 C 268.674 198.740,268.414 198.350,268.409 198.533 M84.445 205.711 C 84.200 207.116,84.025 208.971,84.054 209.833 C 84.088 210.792,84.166 211.012,84.255 210.400 C 84.336 209.850,84.608 208.091,84.859 206.491 C 85.110 204.892,85.220 203.487,85.103 203.370 C 84.986 203.252,84.690 204.306,84.445 205.711 M271.833 210.800 C 271.957 212.010,272.198 214.080,272.369 215.400 L 272.678 217.800 272.713 215.600 C 272.733 214.390,272.492 212.320,272.177 211.000 L 271.606 208.600 271.833 210.800 M83.450 214.050 C 83.130 215.651,83.213 233.818,83.547 235.378 C 83.686 236.026,83.800 231.211,83.800 224.678 C 83.800 218.145,83.778 212.800,83.750 212.800 C 83.723 212.800,83.588 213.363,83.450 214.050 M130.897 215.475 C 130.426 216.625,130.590 232.728,131.102 235.600 L 131.566 238.200 131.287 235.000 C 130.849 229.962,130.939 216.500,131.415 216.025 C 131.701 215.739,132.259 215.901,133.215 216.547 C 135.339 217.984,139.526 220.204,142.290 221.361 C 143.660 221.933,145.730 222.830,146.890 223.353 C 148.051 223.875,149.720 224.532,150.600 224.812 C 151.480 225.092,153.370 225.725,154.800 226.220 C 156.230 226.715,158.390 227.433,159.600 227.815 C 160.810 228.197,162.160 228.655,162.600 228.832 C 163.040 229.010,165.740 229.903,168.600 230.818 C 171.460 231.733,174.391 232.733,175.114 233.041 C 175.836 233.348,176.693 233.600,177.019 233.600 C 177.345 233.600,177.923 233.766,178.305 233.969 C 178.687 234.172,187.910 237.251,198.800 240.811 C 209.690 244.371,218.960 247.418,219.400 247.582 C 221.133 248.228,223.114 248.892,225.600 249.659 C 227.030 250.100,228.560 250.612,229.000 250.797 C 229.440 250.982,230.160 251.226,230.600 251.340 C 231.040 251.454,232.210 251.848,233.200 252.215 C 234.190 252.583,236.350 253.303,238.000 253.815 C 242.253 255.135,249.183 257.545,250.600 258.195 C 254.656 260.059,258.328 266.053,257.205 268.978 C 256.645 270.437,248.407 278.507,244.321 281.600 C 243.885 281.930,243.049 282.571,242.464 283.024 C 240.658 284.422,236.351 286.956,233.070 288.552 C 231.349 289.389,230.014 290.148,230.105 290.238 C 231.562 291.695,247.192 280.525,254.529 272.784 L 258.459 268.638 257.967 266.819 C 256.941 263.022,254.982 260.273,251.993 258.433 C 249.970 257.189,245.727 255.745,182.082 234.642 C 145.259 222.433,142.658 221.419,131.497 214.925 C 131.331 214.829,131.061 215.076,130.897 215.475 M272.959 224.000 C 272.959 227.190,273.021 228.495,273.097 226.900 C 273.173 225.305,273.173 222.695,273.097 221.100 C 273.021 219.505,272.959 220.810,272.959 224.000 M319.093 240.000 C 318.704 243.190,318.288 246.340,318.168 247.000 C 318.020 247.822,318.066 248.011,318.316 247.600 C 318.798 246.808,320.109 236.924,319.936 235.394 C 319.861 234.737,319.482 236.810,319.093 240.000 M84.225 240.914 C 84.341 242.626,84.596 244.426,84.793 244.914 C 85.307 246.193,85.246 245.075,84.590 241.200 L 84.015 237.800 84.225 240.914 M131.646 239.200 C 131.665 239.530,131.824 240.250,132.000 240.800 L 132.320 241.800 132.354 240.800 C 132.373 240.250,132.213 239.530,132.000 239.200 C 131.655 238.667,131.616 238.667,131.646 239.200 M132.446 242.800 C 132.468 243.698,133.534 246.304,133.570 245.546 C 133.586 245.186,133.337 244.286,133.016 243.546 C 132.694 242.806,132.438 242.470,132.446 242.800 M85.231 246.849 C 85.195 248.067,86.608 253.952,87.028 254.339 C 87.185 254.482,87.172 254.060,86.999 253.400 C 86.827 252.740,86.366 250.760,85.974 249.000 C 85.582 247.240,85.247 246.272,85.231 246.849 M133.627 246.590 C 133.513 248.238,138.669 258.857,142.112 264.063 C 145.878 269.759,153.700 277.980,159.300 282.129 C 161.803 283.984,160.978 282.977,158.100 280.665 C 151.464 275.334,145.109 268.203,140.862 261.325 C 138.979 258.275,135.600 251.561,135.600 250.869 C 135.600 250.679,135.359 250.000,135.064 249.361 C 134.769 248.723,134.331 247.750,134.091 247.200 C 133.851 246.650,133.642 246.376,133.627 246.590 M317.237 250.782 C 316.938 252.127,316.779 253.312,316.883 253.416 C 317.151 253.684,318.136 249.407,317.941 248.822 C 317.852 248.555,317.535 249.437,317.237 250.782 M316.229 255.029 C 316.081 255.615,316.051 256.184,316.161 256.294 C 316.271 256.404,316.481 256.015,316.629 255.429 C 316.776 254.842,316.806 254.273,316.696 254.163 C 316.586 254.053,316.376 254.442,316.229 255.029 M87.235 255.765 C 87.216 256.186,87.493 257.536,87.851 258.765 C 88.209 259.994,88.574 261.251,88.661 261.557 C 88.748 261.864,88.900 262.033,89.000 261.933 C 89.100 261.834,88.751 260.233,88.225 258.376 C 87.700 256.519,87.254 255.344,87.235 255.765 M315.287 258.587 C 315.005 259.644,314.852 260.585,314.947 260.681 C 315.225 260.958,316.073 258.073,315.930 257.337 C 315.858 256.968,315.569 257.531,315.287 258.587 M314.036 262.836 C 313.396 264.974,313.710 265.289,314.400 263.200 C 314.691 262.318,314.839 261.506,314.729 261.395 C 314.618 261.285,314.307 261.934,314.036 262.836 M89.230 263.000 C 89.228 263.837,90.361 266.136,90.386 265.346 C 90.394 265.096,90.137 264.286,89.816 263.546 C 89.412 262.617,89.231 262.448,89.230 263.000 M90.400 266.284 C 90.400 266.679,91.099 268.568,92.071 270.800 C 93.916 275.035,93.969 274.283,92.143 269.772 C 90.643 266.067,90.400 265.580,90.400 266.284 M311.386 270.077 C 310.781 271.685,310.105 273.229,309.886 273.510 C 309.666 273.790,309.591 274.125,309.720 274.254 C 309.940 274.473,310.487 273.383,312.208 269.296 C 312.602 268.359,312.827 267.493,312.706 267.373 C 312.586 267.253,311.992 268.469,311.386 270.077 M93.600 274.125 C 93.600 274.524,95.285 277.648,95.425 277.508 C 95.621 277.313,94.077 274.000,93.791 274.000 C 93.686 274.000,93.600 274.056,93.600 274.125 M308.497 276.575 C 308.009 277.579,307.680 278.400,307.766 278.400 C 308.079 278.400,309.629 275.487,309.508 275.125 C 309.440 274.919,308.985 275.572,308.497 276.575 M95.600 278.260 C 95.600 278.487,96.500 280.170,97.600 282.000 C 98.700 283.830,99.600 285.376,99.600 285.436 C 99.600 285.842,107.791 297.503,108.426 298.000 C 108.567 298.110,109.542 299.280,110.593 300.600 C 112.864 303.451,122.957 313.544,125.800 315.808 C 126.900 316.684,127.890 317.509,128.000 317.642 C 129.035 318.898,143.507 328.626,143.842 328.291 C 143.926 328.207,142.332 327.106,140.298 325.845 C 128.311 318.412,116.022 307.216,107.116 295.612 C 103.942 291.476,96.824 280.501,96.787 279.686 C 96.766 279.214,95.600 277.813,95.600 278.260 M306.857 279.657 C 306.575 280.109,306.432 280.566,306.540 280.673 C 306.647 280.781,306.944 280.478,307.200 280.000 C 307.805 278.870,307.524 278.590,306.857 279.657 M303.759 285.090 C 293.230 302.517,273.826 321.077,257.661 329.184 C 256.705 329.663,256.012 330.146,256.122 330.256 C 256.375 330.509,256.782 330.285,262.537 326.728 C 265.142 325.118,267.579 323.620,267.953 323.400 C 268.774 322.916,272.919 319.917,273.200 319.603 C 273.310 319.480,274.209 318.754,275.199 317.990 C 280.048 314.243,291.728 302.583,295.222 298.000 C 295.977 297.010,296.730 296.140,296.897 296.067 C 297.064 295.993,297.200 295.755,297.200 295.538 C 297.200 295.321,297.425 294.892,297.700 294.585 C 299.774 292.272,306.635 281.702,306.288 281.354 C 306.195 281.261,305.057 282.942,303.759 285.090 M161.200 283.361 C 161.200 284.006,173.074 290.659,173.487 290.246 C 173.587 290.147,172.017 289.245,169.998 288.242 C 167.980 287.239,165.244 285.694,163.919 284.809 C 161.548 283.226,161.200 283.041,161.200 283.361 M174.083 290.616 C 174.467 291.001,178.542 292.391,178.731 292.202 C 178.832 292.101,178.574 291.898,178.157 291.750 C 177.741 291.603,176.793 291.238,176.051 290.941 C 174.675 290.389,173.694 290.227,174.083 290.616 M228.200 290.800 C 228.064 291.020,227.705 291.200,227.402 291.200 C 226.630 291.200,224.651 291.984,224.870 292.204 C 225.058 292.391,229.135 290.998,229.517 290.616 C 229.636 290.497,229.444 290.400,229.090 290.400 C 228.737 290.400,228.336 290.580,228.200 290.800 M180.600 293.012 C 182.673 293.758,183.394 293.740,181.654 292.984 C 180.914 292.663,180.014 292.408,179.654 292.418 C 179.294 292.427,179.720 292.695,180.600 293.012 M221.800 293.014 C 220.259 293.720,221.360 293.709,223.200 293.000 C 224.076 292.663,224.300 292.462,223.800 292.463 C 223.360 292.464,222.460 292.712,221.800 293.014 M183.800 294.000 C 184.911 294.478,185.695 294.478,185.400 294.000 C 185.264 293.780,184.668 293.613,184.076 293.628 C 183.115 293.653,183.086 293.693,183.800 294.000 M218.400 294.000 C 217.605 294.514,218.604 294.514,219.800 294.000 L 220.600 293.656 219.800 293.634 C 219.360 293.622,218.730 293.787,218.400 294.000 M189.000 294.974 C 190.540 295.284,192.880 295.526,194.200 295.514 L 196.600 295.491 194.200 295.191 C 192.880 295.026,190.540 294.783,189.000 294.651 L 186.200 294.411 189.000 294.974 M211.000 295.034 L 207.400 295.552 210.600 295.382 C 214.211 295.191,218.517 294.494,216.000 294.508 C 215.230 294.512,212.980 294.749,211.000 295.034 M199.317 295.897 C 200.811 295.974,203.151 295.974,204.517 295.896 C 205.882 295.818,204.660 295.755,201.800 295.755 C 198.940 295.756,197.822 295.820,199.317 295.897 M144.400 328.552 C 144.400 328.853,147.295 330.438,147.489 330.244 C 147.593 330.141,146.940 329.680,146.039 329.220 C 145.137 328.760,144.400 328.460,144.400 328.552 M148.033 330.557 C 148.562 331.055,151.325 332.408,151.486 332.248 C 151.591 332.142,150.906 331.683,149.964 331.228 C 148.339 330.443,147.663 330.208,148.033 330.557 M253.457 331.267 C 252.608 331.696,251.992 332.125,252.087 332.221 C 252.286 332.419,255.600 330.881,255.600 330.591 C 255.600 330.281,255.091 330.441,253.457 331.267 M152.624 332.987 C 153.051 333.310,153.670 333.574,154.000 333.573 C 154.348 333.572,154.180 333.332,153.600 333.000 C 152.285 332.248,151.636 332.240,152.624 332.987 M250.000 333.000 C 249.420 333.332,249.252 333.572,249.600 333.573 C 249.930 333.574,250.549 333.310,250.976 332.987 C 251.964 332.240,251.315 332.248,250.000 333.000 M155.000 333.869 C 155.751 334.595,164.739 337.794,165.077 337.456 C 165.188 337.345,164.406 336.992,163.339 336.670 C 162.273 336.349,160.230 335.635,158.800 335.084 C 154.561 333.450,154.569 333.452,155.000 333.869 M246.200 334.591 C 245.100 335.109,244.504 335.548,244.876 335.567 C 245.248 335.585,245.655 335.434,245.781 335.231 C 245.906 335.028,246.545 334.744,247.200 334.600 C 247.855 334.456,248.494 334.172,248.619 333.969 C 248.965 333.410,248.398 333.556,246.200 334.591 M240.671 336.487 C 239.389 336.920,238.424 337.357,238.524 337.458 C 238.726 337.660,244.000 336.030,244.000 335.765 C 244.000 335.475,243.063 335.679,240.671 336.487 M167.000 338.212 C 167.880 338.529,168.870 338.777,169.200 338.764 C 170.042 338.729,167.177 337.664,166.200 337.648 C 165.760 337.641,166.120 337.895,167.000 338.212 M235.200 338.200 C 234.319 338.539,234.097 338.739,234.600 338.739 C 235.040 338.739,236.030 338.497,236.800 338.200 C 237.681 337.861,237.903 337.661,237.400 337.661 C 236.960 337.661,235.970 337.903,235.200 338.200 M170.515 339.048 C 171.132 339.666,180.273 341.555,183.800 341.795 C 186.431 341.973,186.391 341.964,179.800 340.839 C 178.260 340.576,175.580 340.010,173.845 339.581 C 170.373 338.722,170.153 338.686,170.515 339.048 M230.200 339.454 C 228.393 339.956,224.998 340.635,219.400 341.615 L 217.400 341.965 219.800 341.798 C 223.342 341.552,232.470 339.663,233.085 339.048 C 233.447 338.687,232.473 338.824,230.200 339.454 M188.000 342.376 C 188.539 342.746,192.768 343.011,192.367 342.650 C 192.275 342.568,191.120 342.380,189.800 342.232 C 188.104 342.043,187.576 342.086,188.000 342.376 M212.600 342.400 L 211.000 342.686 213.000 342.715 C 214.100 342.731,215.360 342.589,215.800 342.400 C 216.815 341.964,215.037 341.964,212.600 342.400 M198.121 343.098 C 200.277 343.171,203.697 343.170,205.721 343.098 C 207.744 343.025,205.980 342.966,201.800 342.967 C 197.620 342.967,195.964 343.026,198.121 343.098 " stroke="none" fill="#558d81" fill-rule="evenodd"></path></g></svg>