<?xml version="1.0" standalone="no"?>
<!DOCTYPE svg PUBLIC "-//W3C//DTD SVG 20010904//EN"
 "http://www.w3.org/TR/2001/REC-SVG-20010904/DTD/svg10.dtd">
<svg version="1.0" xmlns="http://www.w3.org/2000/svg"
 width="494.000000pt" height="494.000000pt" viewBox="0 0 494.000000 494.000000"
 preserveAspectRatio="xMidYMid meet">
<metadata>
Created by potrace 1.11, written by Peter Selinger 2001-2013
</metadata>
<g transform="translate(0.000000,494.000000) scale(0.100000,-0.100000)"
fill="#000000" stroke="none">
<path d="M3560 4915 c-110 -25 -211 -105 -268 -214 -28 -53 -43 -145 -43 -264
-1 -67 -3 -125 -5 -128 -2 -4 -43 7 -91 22 -94 31 -276 74 -358 85 -27 3 -59
8 -70 11 -40 9 -401 11 -465 3 -36 -5 -83 -11 -105 -14 -60 -7 -193 -34 -255
-51 -30 -9 -62 -18 -71 -20 -28 -6 -101 -32 -184 -65 -757 -300 -1306 -1026
-1383 -1830 -14 -143 -7 -471 12 -560 1 -8 6 -33 10 -55 77 -428 271 -815 565
-1130 367 -391 859 -637 1386 -693 139 -14 465 -7 565 13 14 3 54 10 89 16 36
5 67 12 71 14 4 2 22 7 41 10 72 13 300 92 404 141 111 52 376 211 405 243 3
3 28 24 55 46 319 253 576 622 711 1022 25 75 69 250 80 318 3 22 8 43 9 46
18 28 27 458 12 579 -48 402 -180 741 -417 1070 -38 52 -94 122 -124 155 l-55
60 -1 400 c0 352 -2 409 -18 477 -36 147 -148 259 -293 292 -83 19 -132 19
-209 1z"/>
</g>
</svg>
